<svg width="93" height="90" fill="none" xmlns="http://www.w3.org/2000/svg"><path d="M0 45.27C.005 67.545 16.639 86.51 39.23 90V58.356H27.435V45.27h11.81v-9.96c-.527-4.72 1.128-9.424 4.519-12.837 3.39-3.412 8.163-5.179 13.026-4.821 3.49.055 6.97.357 10.415.905v11.134h-5.877a6.838 6.838 0 00-5.53 1.769 6.452 6.452 0 00-2.04 5.308v8.503H66.64l-2.06 13.09H53.758V90c24.432-3.76 41.565-25.487 38.986-49.442C90.165 16.603 68.777-1.192 44.075.063 19.373 1.318.004 21.185 0 45.27z" fill="#3B5998" fill-opacity=".86"/></svg>